<?xml version="1.0" standalone="no"?>
<!DOCTYPE svg PUBLIC "-//W3C//DTD SVG 20010904//EN"
 "http://www.w3.org/TR/2001/REC-SVG-20010904/DTD/svg10.dtd">
<svg version="1.0" xmlns="http://www.w3.org/2000/svg"
 width="1200.000000pt" height="1200.000000pt" viewBox="0 0 1200.000000 1200.000000"
 preserveAspectRatio="xMidYMid meet">
<metadata>
Created by potrace 1.14, written by Peter Selinger 2001-2017
</metadata>
<g transform="translate(0.000000,1200.000000) scale(0.100000,-0.100000)"
fill="#000000" stroke="none">
<path d="M4933 7502 c-144 -26 -264 -49 -266 -52 -3 -3 179 -135 405 -293
l409 -288 167 51 c92 29 168 53 170 55 2 1 -101 90 -227 196 -126 107 -228
195 -226 197 1 2 167 -67 368 -153 l365 -156 106 33 c58 18 106 35 106 38 0
13 -1051 420 -1082 419 -18 0 -151 -22 -295 -47z"/>
<path d="M7870 7274 c-422 -49 -513 -70 -1132 -264 l-426 -134 -86 -234 c-48
-129 -85 -236 -84 -237 3 -3 505 154 1226 382 l432 136 -24 26 c-52 57 -57
108 -13 149 82 77 357 130 687 133 l125 1 -90 20 c-72 16 -138 20 -335 23
-135 2 -261 1 -280 -1z"/>
<path d="M8648 6994 c-154 -23 -238 -48 -1143 -334 -489 -155 -1014 -321
-1165 -369 l-275 -87 -67 -179 c-38 -99 -68 -182 -68 -184 0 -2 8 6 18 17 25
29 545 198 1992 648 685 212 1247 388 1249 390 10 9 -35 44 -87 67 -105 47
-277 59 -454 31z"/>
<path d="M8175 6334 c-660 -206 -1239 -386 -1287 -402 l-87 -27 -210 -300
c-115 -165 -209 -301 -208 -302 1 -1 130 36 287 82 157 47 821 242 1475 435
832 245 1203 359 1235 378 55 34 106 99 121 155 23 87 -5 211 -71 312 -14 22
-32 41 -40 42 -8 1 -555 -167 -1215 -373z"/>
<path d="M6242 5701 l-152 -56 -233 -315 -233 -315 -103 -280 c-57 -154 -114
-309 -128 -344 -13 -36 -22 -63 -19 -60 13 13 1026 1422 1024 1423 -2 1 -72
-23 -156 -53z"/>
<path d="M5130 5399 c-581 -157 -1090 -220 -1445 -178 -49 5 -103 12 -120 13
-16 2 -38 7 -47 11 -10 4 -24 5 -32 2 -8 -3 -16 -1 -18 5 -2 6 -14 -76 -26
-182 -13 -106 -19 -197 -15 -201 4 -4 51 -20 103 -34 322 -86 672 -94 1110
-24 161 25 432 87 447 102 7 7 55 122 109 257 53 135 98 251 101 258 7 17 -4
15 -167 -29z"/>
</g>
</svg>
